<mxfile host="app.diagrams.net" modified="2024-05-10T12:15:17.353Z" agent="Mozilla/5.0 (Windows NT 10.0; Win64; x64) AppleWebKit/537.36 (KHTML, like Gecko) Chrome/116.0.0.0 Safari/537.36" etag="xsep4pB_lRQoLxqjOyIG" version="24.3.1" type="github">
  <diagram name="第 1 页" id="S-5s4yw2gBzfNdzOF_SS">
    <mxGraphModel dx="-154" dy="774" grid="1" gridSize="10" guides="1" tooltips="1" connect="1" arrows="1" fold="1" page="1" pageScale="1" pageWidth="827" pageHeight="1169" math="0" shadow="0">
      <root>
        <mxCell id="0" />
        <mxCell id="1" parent="0" />
        <mxCell id="6m1_PlZxY0XMyKxD8_Q--111" value="预约榜场景" style="swimlane;childLayout=stackLayout;resizeParent=1;resizeParentMax=0;startSize=20;html=1;" vertex="1" parent="1">
          <mxGeometry x="1840" y="40" width="1475" height="1670" as="geometry" />
        </mxCell>
        <mxCell id="6m1_PlZxY0XMyKxD8_Q--112" value="客户端" style="swimlane;startSize=20;html=1;" vertex="1" parent="6m1_PlZxY0XMyKxD8_Q--111">
          <mxGeometry y="20" width="160" height="1650" as="geometry" />
        </mxCell>
        <mxCell id="6m1_PlZxY0XMyKxD8_Q--113" value="开始" style="ellipse;whiteSpace=wrap;html=1;" vertex="1" parent="6m1_PlZxY0XMyKxD8_Q--112">
          <mxGeometry x="25" y="30" width="70" height="50" as="geometry" />
        </mxCell>
        <mxCell id="6m1_PlZxY0XMyKxD8_Q--114" value="结束" style="ellipse;whiteSpace=wrap;html=1;" vertex="1" parent="6m1_PlZxY0XMyKxD8_Q--112">
          <mxGeometry x="25" y="700" width="80" height="50" as="geometry" />
        </mxCell>
        <mxCell id="6m1_PlZxY0XMyKxD8_Q--115" value="结束" style="ellipse;whiteSpace=wrap;html=1;" vertex="1" parent="6m1_PlZxY0XMyKxD8_Q--112">
          <mxGeometry x="35" y="1210" width="90" height="50" as="geometry" />
        </mxCell>
        <mxCell id="6m1_PlZxY0XMyKxD8_Q--116" value="cdo-store-api" style="swimlane;startSize=20;html=1;" vertex="1" parent="6m1_PlZxY0XMyKxD8_Q--111">
          <mxGeometry x="160" y="20" width="290" height="1650" as="geometry" />
        </mxCell>
        <mxCell id="6m1_PlZxY0XMyKxD8_Q--117" value="" style="edgeStyle=orthogonalEdgeStyle;rounded=0;orthogonalLoop=1;jettySize=auto;html=1;" edge="1" parent="6m1_PlZxY0XMyKxD8_Q--116" source="6m1_PlZxY0XMyKxD8_Q--118" target="6m1_PlZxY0XMyKxD8_Q--119">
          <mxGeometry relative="1" as="geometry" />
        </mxCell>
        <mxCell id="6m1_PlZxY0XMyKxD8_Q--118" value="专题接口" style="whiteSpace=wrap;html=1;" vertex="1" parent="6m1_PlZxY0XMyKxD8_Q--116">
          <mxGeometry x="50" y="32.5" width="100" height="45" as="geometry" />
        </mxCell>
        <mxCell id="6m1_PlZxY0XMyKxD8_Q--119" value="根据专题id请求卡片" style="whiteSpace=wrap;html=1;" vertex="1" parent="6m1_PlZxY0XMyKxD8_Q--116">
          <mxGeometry x="35" y="130" width="130" height="50" as="geometry" />
        </mxCell>
        <mxCell id="6m1_PlZxY0XMyKxD8_Q--153" style="edgeStyle=orthogonalEdgeStyle;rounded=0;orthogonalLoop=1;jettySize=auto;html=1;entryX=0.5;entryY=0;entryDx=0;entryDy=0;" edge="1" parent="6m1_PlZxY0XMyKxD8_Q--116" source="6m1_PlZxY0XMyKxD8_Q--121" target="6m1_PlZxY0XMyKxD8_Q--151">
          <mxGeometry relative="1" as="geometry" />
        </mxCell>
        <mxCell id="6m1_PlZxY0XMyKxD8_Q--121" value="接收【卡片1】&lt;br&gt;（非预约榜场景，直接返回)" style="whiteSpace=wrap;html=1;" vertex="1" parent="6m1_PlZxY0XMyKxD8_Q--116">
          <mxGeometry x="20" y="535" width="160" height="50" as="geometry" />
        </mxCell>
        <mxCell id="6m1_PlZxY0XMyKxD8_Q--122" value="获取配置中心：&lt;br&gt;预约榜rank_id = 3108" style="whiteSpace=wrap;html=1;fillColor=#fff2cc;strokeColor=#d6b656;" vertex="1" parent="6m1_PlZxY0XMyKxD8_Q--116">
          <mxGeometry x="40" y="760" width="120" height="60" as="geometry" />
        </mxCell>
        <mxCell id="6m1_PlZxY0XMyKxD8_Q--123" value="" style="edgeStyle=orthogonalEdgeStyle;rounded=0;orthogonalLoop=1;jettySize=auto;html=1;" edge="1" parent="6m1_PlZxY0XMyKxD8_Q--116" source="6m1_PlZxY0XMyKxD8_Q--124" target="6m1_PlZxY0XMyKxD8_Q--125">
          <mxGeometry relative="1" as="geometry" />
        </mxCell>
        <mxCell id="6m1_PlZxY0XMyKxD8_Q--124" value="查询本地缓存&lt;br&gt;组装预约信息&lt;br&gt;如果没有会反查游戏中心&lt;br&gt;&lt;br&gt;&lt;div&gt;问题：内测游戏bookingStatus = 0，不会外显“安装”&lt;br&gt;&lt;br&gt;组装虚拟【卡片2】&lt;/div&gt;" style="whiteSpace=wrap;html=1;fillColor=#f8cecc;strokeColor=#b85450;" vertex="1" parent="6m1_PlZxY0XMyKxD8_Q--116">
          <mxGeometry x="17.5" y="920" width="205" height="137.5" as="geometry" />
        </mxCell>
        <mxCell id="6m1_PlZxY0XMyKxD8_Q--125" value="组装【卡片1】+ 【卡片2】&lt;br&gt;&lt;br&gt;问题：缓存篡改，如果卡片为空，会无限追加【卡片2】" style="whiteSpace=wrap;html=1;fillColor=#f8cecc;strokeColor=#b85450;" vertex="1" parent="6m1_PlZxY0XMyKxD8_Q--116">
          <mxGeometry x="30" y="1110" width="180" height="60" as="geometry" />
        </mxCell>
        <mxCell id="6m1_PlZxY0XMyKxD8_Q--126" value="定时任务" style="text;html=1;align=center;verticalAlign=middle;resizable=0;points=[];autosize=1;strokeColor=#666666;fillColor=#f5f5f5;fontColor=#333333;" vertex="1" parent="6m1_PlZxY0XMyKxD8_Q--116">
          <mxGeometry x="230" y="950" width="70" height="30" as="geometry" />
        </mxCell>
        <mxCell id="6m1_PlZxY0XMyKxD8_Q--154" style="edgeStyle=orthogonalEdgeStyle;rounded=0;orthogonalLoop=1;jettySize=auto;html=1;entryX=0.5;entryY=0;entryDx=0;entryDy=0;" edge="1" parent="6m1_PlZxY0XMyKxD8_Q--116" source="6m1_PlZxY0XMyKxD8_Q--151" target="6m1_PlZxY0XMyKxD8_Q--122">
          <mxGeometry relative="1" as="geometry" />
        </mxCell>
        <mxCell id="6m1_PlZxY0XMyKxD8_Q--151" value="subType == 5?&lt;br&gt;（是否是预约专题？）" style="rhombus;whiteSpace=wrap;html=1;" vertex="1" parent="6m1_PlZxY0XMyKxD8_Q--116">
          <mxGeometry x="25" y="630" width="150" height="80" as="geometry" />
        </mxCell>
        <mxCell id="6m1_PlZxY0XMyKxD8_Q--227" value="反查" style="text;html=1;align=center;verticalAlign=middle;resizable=0;points=[];autosize=1;strokeColor=#666666;fillColor=#f5f5f5;fontColor=#333333;" vertex="1" parent="6m1_PlZxY0XMyKxD8_Q--116">
          <mxGeometry x="230" y="1007.5" width="50" height="30" as="geometry" />
        </mxCell>
        <mxCell id="6m1_PlZxY0XMyKxD8_Q--127" value="cdo-page-rpc-store" style="swimlane;startSize=20;html=1;" vertex="1" parent="6m1_PlZxY0XMyKxD8_Q--111">
          <mxGeometry x="450" y="20" width="365" height="1650" as="geometry" />
        </mxCell>
        <mxCell id="6m1_PlZxY0XMyKxD8_Q--128" value="queryV2&lt;br&gt;页面AB获取portal配置内容：&lt;br&gt;预约榜rank_id = 3108" style="whiteSpace=wrap;html=1;fillColor=#fff2cc;strokeColor=#d6b656;" vertex="1" parent="6m1_PlZxY0XMyKxD8_Q--127">
          <mxGeometry x="20" y="200" width="200" height="60" as="geometry" />
        </mxCell>
        <mxCell id="6m1_PlZxY0XMyKxD8_Q--129" value="请求资源过滤" style="whiteSpace=wrap;html=1;" vertex="1" parent="6m1_PlZxY0XMyKxD8_Q--127">
          <mxGeometry x="60" y="370" width="120" height="60" as="geometry" />
        </mxCell>
        <mxCell id="6m1_PlZxY0XMyKxD8_Q--130" value="卡片的其他操作" style="whiteSpace=wrap;html=1;" vertex="1" parent="6m1_PlZxY0XMyKxD8_Q--127">
          <mxGeometry x="60" y="530" width="120" height="60" as="geometry" />
        </mxCell>
        <mxCell id="6m1_PlZxY0XMyKxD8_Q--131" value="cdo-rank-rpc" style="swimlane;startSize=20;html=1;" vertex="1" parent="6m1_PlZxY0XMyKxD8_Q--111">
          <mxGeometry x="815" y="20" width="240" height="1650" as="geometry" />
        </mxCell>
        <mxCell id="6m1_PlZxY0XMyKxD8_Q--132" value="获取预约榜资源" style="whiteSpace=wrap;html=1;" vertex="1" parent="6m1_PlZxY0XMyKxD8_Q--131">
          <mxGeometry x="50" y="280" width="120" height="60" as="geometry" />
        </mxCell>
        <mxCell id="6m1_PlZxY0XMyKxD8_Q--133" value="获取预约榜资源" style="whiteSpace=wrap;html=1;" vertex="1" parent="6m1_PlZxY0XMyKxD8_Q--131">
          <mxGeometry x="65" y="760" width="120" height="60" as="geometry" />
        </mxCell>
        <mxCell id="6m1_PlZxY0XMyKxD8_Q--134" value="cdo-resource-rpc-store" style="swimlane;startSize=20;html=1;" vertex="1" parent="6m1_PlZxY0XMyKxD8_Q--111">
          <mxGeometry x="1055" y="20" width="190" height="1650" as="geometry" />
        </mxCell>
        <mxCell id="6m1_PlZxY0XMyKxD8_Q--135" value="AppServiceV2.filter&lt;br&gt;保留机型、cpu等过滤后的在架资源" style="whiteSpace=wrap;html=1;fillColor=#f8cecc;strokeColor=#b85450;" vertex="1" parent="6m1_PlZxY0XMyKxD8_Q--134">
          <mxGeometry x="35" y="455" width="120" height="60" as="geometry" />
        </mxCell>
        <mxCell id="6m1_PlZxY0XMyKxD8_Q--136" value="game-welfare" style="swimlane;startSize=20;html=1;" vertex="1" parent="6m1_PlZxY0XMyKxD8_Q--111">
          <mxGeometry x="1245" y="20" width="230" height="1650" as="geometry" />
        </mxCell>
        <mxCell id="6m1_PlZxY0XMyKxD8_Q--137" value="游戏预约信息" style="whiteSpace=wrap;html=1;" vertex="1" parent="6m1_PlZxY0XMyKxD8_Q--136">
          <mxGeometry x="75" y="958.75" width="120" height="60" as="geometry" />
        </mxCell>
        <mxCell id="6m1_PlZxY0XMyKxD8_Q--138" value="" style="edgeStyle=orthogonalEdgeStyle;rounded=0;orthogonalLoop=1;jettySize=auto;html=1;" edge="1" parent="6m1_PlZxY0XMyKxD8_Q--111" source="6m1_PlZxY0XMyKxD8_Q--113" target="6m1_PlZxY0XMyKxD8_Q--118">
          <mxGeometry relative="1" as="geometry" />
        </mxCell>
        <mxCell id="6m1_PlZxY0XMyKxD8_Q--139" value="" style="edgeStyle=orthogonalEdgeStyle;rounded=0;orthogonalLoop=1;jettySize=auto;html=1;" edge="1" parent="6m1_PlZxY0XMyKxD8_Q--111" source="6m1_PlZxY0XMyKxD8_Q--119" target="6m1_PlZxY0XMyKxD8_Q--128">
          <mxGeometry relative="1" as="geometry" />
        </mxCell>
        <mxCell id="6m1_PlZxY0XMyKxD8_Q--140" value="" style="edgeStyle=orthogonalEdgeStyle;rounded=0;orthogonalLoop=1;jettySize=auto;html=1;" edge="1" parent="6m1_PlZxY0XMyKxD8_Q--111" source="6m1_PlZxY0XMyKxD8_Q--128" target="6m1_PlZxY0XMyKxD8_Q--132">
          <mxGeometry relative="1" as="geometry" />
        </mxCell>
        <mxCell id="6m1_PlZxY0XMyKxD8_Q--141" style="edgeStyle=orthogonalEdgeStyle;rounded=0;orthogonalLoop=1;jettySize=auto;html=1;entryX=0.5;entryY=0;entryDx=0;entryDy=0;" edge="1" parent="6m1_PlZxY0XMyKxD8_Q--111" source="6m1_PlZxY0XMyKxD8_Q--132" target="6m1_PlZxY0XMyKxD8_Q--129">
          <mxGeometry relative="1" as="geometry" />
        </mxCell>
        <mxCell id="6m1_PlZxY0XMyKxD8_Q--142" value="" style="edgeStyle=orthogonalEdgeStyle;rounded=0;orthogonalLoop=1;jettySize=auto;html=1;" edge="1" parent="6m1_PlZxY0XMyKxD8_Q--111" source="6m1_PlZxY0XMyKxD8_Q--129" target="6m1_PlZxY0XMyKxD8_Q--135">
          <mxGeometry relative="1" as="geometry" />
        </mxCell>
        <mxCell id="6m1_PlZxY0XMyKxD8_Q--143" value="" style="edgeStyle=orthogonalEdgeStyle;rounded=0;orthogonalLoop=1;jettySize=auto;html=1;" edge="1" parent="6m1_PlZxY0XMyKxD8_Q--111" source="6m1_PlZxY0XMyKxD8_Q--135" target="6m1_PlZxY0XMyKxD8_Q--130">
          <mxGeometry relative="1" as="geometry" />
        </mxCell>
        <mxCell id="6m1_PlZxY0XMyKxD8_Q--144" value="" style="edgeStyle=orthogonalEdgeStyle;rounded=0;orthogonalLoop=1;jettySize=auto;html=1;" edge="1" parent="6m1_PlZxY0XMyKxD8_Q--111" source="6m1_PlZxY0XMyKxD8_Q--130" target="6m1_PlZxY0XMyKxD8_Q--121">
          <mxGeometry relative="1" as="geometry" />
        </mxCell>
        <mxCell id="6m1_PlZxY0XMyKxD8_Q--147" style="edgeStyle=orthogonalEdgeStyle;rounded=0;orthogonalLoop=1;jettySize=auto;html=1;entryX=1;entryY=0.5;entryDx=0;entryDy=0;startArrow=open;startFill=0;" edge="1" parent="6m1_PlZxY0XMyKxD8_Q--111" source="6m1_PlZxY0XMyKxD8_Q--137" target="6m1_PlZxY0XMyKxD8_Q--124">
          <mxGeometry relative="1" as="geometry">
            <Array as="points">
              <mxPoint x="1080" y="1009" />
              <mxPoint x="1080" y="1009" />
            </Array>
          </mxGeometry>
        </mxCell>
        <mxCell id="6m1_PlZxY0XMyKxD8_Q--149" value="" style="edgeStyle=orthogonalEdgeStyle;rounded=0;orthogonalLoop=1;jettySize=auto;html=1;" edge="1" parent="6m1_PlZxY0XMyKxD8_Q--111" source="6m1_PlZxY0XMyKxD8_Q--125" target="6m1_PlZxY0XMyKxD8_Q--115">
          <mxGeometry relative="1" as="geometry" />
        </mxCell>
        <mxCell id="6m1_PlZxY0XMyKxD8_Q--150" style="edgeStyle=orthogonalEdgeStyle;rounded=0;orthogonalLoop=1;jettySize=auto;html=1;entryX=0.5;entryY=0;entryDx=0;entryDy=0;" edge="1" parent="6m1_PlZxY0XMyKxD8_Q--111" source="6m1_PlZxY0XMyKxD8_Q--133" target="6m1_PlZxY0XMyKxD8_Q--124">
          <mxGeometry relative="1" as="geometry">
            <Array as="points">
              <mxPoint x="940" y="910" />
              <mxPoint x="280" y="910" />
            </Array>
          </mxGeometry>
        </mxCell>
        <mxCell id="6m1_PlZxY0XMyKxD8_Q--152" style="edgeStyle=orthogonalEdgeStyle;rounded=0;orthogonalLoop=1;jettySize=auto;html=1;entryX=0.5;entryY=0;entryDx=0;entryDy=0;" edge="1" parent="6m1_PlZxY0XMyKxD8_Q--111" source="6m1_PlZxY0XMyKxD8_Q--151" target="6m1_PlZxY0XMyKxD8_Q--114">
          <mxGeometry relative="1" as="geometry" />
        </mxCell>
        <mxCell id="6m1_PlZxY0XMyKxD8_Q--155" style="edgeStyle=orthogonalEdgeStyle;rounded=0;orthogonalLoop=1;jettySize=auto;html=1;entryX=0;entryY=0.5;entryDx=0;entryDy=0;" edge="1" parent="6m1_PlZxY0XMyKxD8_Q--111" source="6m1_PlZxY0XMyKxD8_Q--122" target="6m1_PlZxY0XMyKxD8_Q--133">
          <mxGeometry relative="1" as="geometry" />
        </mxCell>
        <mxCell id="6m1_PlZxY0XMyKxD8_Q--156" value="预约榜场景" style="swimlane;childLayout=stackLayout;resizeParent=1;resizeParentMax=0;startSize=20;html=1;" vertex="1" parent="1">
          <mxGeometry x="3710" y="50" width="1520" height="1670" as="geometry" />
        </mxCell>
        <mxCell id="6m1_PlZxY0XMyKxD8_Q--157" value="客户端" style="swimlane;startSize=20;html=1;" vertex="1" parent="6m1_PlZxY0XMyKxD8_Q--156">
          <mxGeometry y="20" width="160" height="1650" as="geometry" />
        </mxCell>
        <mxCell id="6m1_PlZxY0XMyKxD8_Q--158" value="开始" style="ellipse;whiteSpace=wrap;html=1;" vertex="1" parent="6m1_PlZxY0XMyKxD8_Q--157">
          <mxGeometry x="25" y="30" width="70" height="50" as="geometry" />
        </mxCell>
        <mxCell id="6m1_PlZxY0XMyKxD8_Q--160" value="结束" style="ellipse;whiteSpace=wrap;html=1;" vertex="1" parent="6m1_PlZxY0XMyKxD8_Q--157">
          <mxGeometry x="35" y="1000" width="90" height="50" as="geometry" />
        </mxCell>
        <mxCell id="6m1_PlZxY0XMyKxD8_Q--213" value="结束" style="ellipse;whiteSpace=wrap;html=1;" vertex="1" parent="6m1_PlZxY0XMyKxD8_Q--157">
          <mxGeometry x="25" y="1145" width="80" height="50" as="geometry" />
        </mxCell>
        <mxCell id="6m1_PlZxY0XMyKxD8_Q--161" value="cdo-store-api" style="swimlane;startSize=20;html=1;" vertex="1" parent="6m1_PlZxY0XMyKxD8_Q--156">
          <mxGeometry x="160" y="20" width="320" height="1650" as="geometry" />
        </mxCell>
        <mxCell id="6m1_PlZxY0XMyKxD8_Q--207" style="edgeStyle=orthogonalEdgeStyle;rounded=0;orthogonalLoop=1;jettySize=auto;html=1;entryX=0.5;entryY=0;entryDx=0;entryDy=0;" edge="1" parent="6m1_PlZxY0XMyKxD8_Q--161" source="6m1_PlZxY0XMyKxD8_Q--163" target="6m1_PlZxY0XMyKxD8_Q--173">
          <mxGeometry relative="1" as="geometry" />
        </mxCell>
        <mxCell id="6m1_PlZxY0XMyKxD8_Q--163" value="专题接口" style="whiteSpace=wrap;html=1;" vertex="1" parent="6m1_PlZxY0XMyKxD8_Q--161">
          <mxGeometry x="95" y="32.5" width="100" height="45" as="geometry" />
        </mxCell>
        <mxCell id="6m1_PlZxY0XMyKxD8_Q--223" value="" style="edgeStyle=orthogonalEdgeStyle;rounded=0;orthogonalLoop=1;jettySize=auto;html=1;" edge="1" parent="6m1_PlZxY0XMyKxD8_Q--161" source="6m1_PlZxY0XMyKxD8_Q--167" target="6m1_PlZxY0XMyKxD8_Q--222">
          <mxGeometry relative="1" as="geometry" />
        </mxCell>
        <mxCell id="6m1_PlZxY0XMyKxD8_Q--167" value="获取配置中心：&lt;br&gt;预约榜rank_id = 3108" style="whiteSpace=wrap;html=1;" vertex="1" parent="6m1_PlZxY0XMyKxD8_Q--161">
          <mxGeometry x="85" y="280" width="120" height="60" as="geometry" />
        </mxCell>
        <mxCell id="6m1_PlZxY0XMyKxD8_Q--169" value="组装【预约榜】虚拟卡片&lt;br&gt;&lt;div&gt;修复外显“安装”&lt;/div&gt;" style="whiteSpace=wrap;html=1;fillColor=#d5e8d4;strokeColor=#82b366;" vertex="1" parent="6m1_PlZxY0XMyKxD8_Q--161">
          <mxGeometry x="60" y="560" width="190" height="75" as="geometry" />
        </mxCell>
        <mxCell id="6m1_PlZxY0XMyKxD8_Q--208" style="edgeStyle=orthogonalEdgeStyle;rounded=0;orthogonalLoop=1;jettySize=auto;html=1;" edge="1" parent="6m1_PlZxY0XMyKxD8_Q--161" source="6m1_PlZxY0XMyKxD8_Q--170">
          <mxGeometry relative="1" as="geometry">
            <mxPoint x="380" y="1020" as="targetPoint" />
          </mxGeometry>
        </mxCell>
        <mxCell id="6m1_PlZxY0XMyKxD8_Q--170" value="以下为常规逻辑，省略&lt;br&gt;根据专题id调用page" style="whiteSpace=wrap;html=1;" vertex="1" parent="6m1_PlZxY0XMyKxD8_Q--161">
          <mxGeometry x="55" y="990" width="180" height="60" as="geometry" />
        </mxCell>
        <mxCell id="6m1_PlZxY0XMyKxD8_Q--202" style="edgeStyle=orthogonalEdgeStyle;rounded=0;orthogonalLoop=1;jettySize=auto;html=1;entryX=0.5;entryY=0;entryDx=0;entryDy=0;" edge="1" parent="6m1_PlZxY0XMyKxD8_Q--161" source="6m1_PlZxY0XMyKxD8_Q--173" target="6m1_PlZxY0XMyKxD8_Q--167">
          <mxGeometry relative="1" as="geometry" />
        </mxCell>
        <mxCell id="6m1_PlZxY0XMyKxD8_Q--215" style="edgeStyle=orthogonalEdgeStyle;rounded=0;orthogonalLoop=1;jettySize=auto;html=1;entryX=0.5;entryY=0;entryDx=0;entryDy=0;" edge="1" parent="6m1_PlZxY0XMyKxD8_Q--161" source="6m1_PlZxY0XMyKxD8_Q--173" target="6m1_PlZxY0XMyKxD8_Q--170">
          <mxGeometry relative="1" as="geometry">
            <Array as="points">
              <mxPoint x="-80" y="170" />
              <mxPoint x="-80" y="950" />
              <mxPoint x="145" y="950" />
            </Array>
          </mxGeometry>
        </mxCell>
        <mxCell id="6m1_PlZxY0XMyKxD8_Q--173" value="subType == 5?&lt;br&gt;（是否是预约专题？）" style="rhombus;whiteSpace=wrap;html=1;" vertex="1" parent="6m1_PlZxY0XMyKxD8_Q--161">
          <mxGeometry x="70" y="130" width="150" height="80" as="geometry" />
        </mxCell>
        <mxCell id="6m1_PlZxY0XMyKxD8_Q--205" value="Y" style="text;html=1;align=center;verticalAlign=middle;resizable=0;points=[];autosize=1;strokeColor=none;fillColor=none;" vertex="1" parent="6m1_PlZxY0XMyKxD8_Q--161">
          <mxGeometry x="140" y="200" width="30" height="30" as="geometry" />
        </mxCell>
        <mxCell id="6m1_PlZxY0XMyKxD8_Q--203" value="N" style="text;html=1;align=center;verticalAlign=middle;resizable=0;points=[];autosize=1;strokeColor=none;fillColor=none;" vertex="1" parent="6m1_PlZxY0XMyKxD8_Q--161">
          <mxGeometry x="50" y="140" width="30" height="30" as="geometry" />
        </mxCell>
        <mxCell id="6m1_PlZxY0XMyKxD8_Q--211" value="组装逻辑" style="whiteSpace=wrap;html=1;" vertex="1" parent="6m1_PlZxY0XMyKxD8_Q--161">
          <mxGeometry x="80" y="1140" width="120" height="60" as="geometry" />
        </mxCell>
        <mxCell id="6m1_PlZxY0XMyKxD8_Q--222" value="查询本地缓存&lt;br&gt;组装预约信息&lt;br&gt;&lt;br&gt;如果不存在会反查游戏中心" style="whiteSpace=wrap;html=1;" vertex="1" parent="6m1_PlZxY0XMyKxD8_Q--161">
          <mxGeometry x="82.5" y="390" width="125" height="100" as="geometry" />
        </mxCell>
        <mxCell id="6m1_PlZxY0XMyKxD8_Q--226" value="反查" style="text;html=1;align=center;verticalAlign=middle;resizable=0;points=[];autosize=1;strokeColor=#666666;fillColor=#f5f5f5;fontColor=#333333;" vertex="1" parent="6m1_PlZxY0XMyKxD8_Q--161">
          <mxGeometry x="245" y="460" width="50" height="30" as="geometry" />
        </mxCell>
        <mxCell id="6m1_PlZxY0XMyKxD8_Q--225" value="定时任务" style="text;html=1;align=center;verticalAlign=middle;resizable=0;points=[];autosize=1;strokeColor=#666666;fillColor=#f5f5f5;fontColor=#333333;" vertex="1" parent="6m1_PlZxY0XMyKxD8_Q--161">
          <mxGeometry x="235" y="400" width="70" height="30" as="geometry" />
        </mxCell>
        <mxCell id="6m1_PlZxY0XMyKxD8_Q--174" value="cdo-page-rpc-store" style="swimlane;startSize=20;html=1;" vertex="1" parent="6m1_PlZxY0XMyKxD8_Q--156">
          <mxGeometry x="480" y="20" width="365" height="1650" as="geometry" />
        </mxCell>
        <mxCell id="6m1_PlZxY0XMyKxD8_Q--209" value="queryV2&lt;br&gt;页面AB获取portal配置内容：&lt;br&gt;非预约榜单rank_id" style="whiteSpace=wrap;html=1;fillColor=#d5e8d4;strokeColor=#82b366;" vertex="1" parent="6m1_PlZxY0XMyKxD8_Q--174">
          <mxGeometry x="90" y="990" width="200" height="60" as="geometry" />
        </mxCell>
        <mxCell id="6m1_PlZxY0XMyKxD8_Q--178" value="cdo-rank-rpc" style="swimlane;startSize=20;html=1;" vertex="1" parent="6m1_PlZxY0XMyKxD8_Q--156">
          <mxGeometry x="845" y="20" width="255" height="1650" as="geometry" />
        </mxCell>
        <mxCell id="6m1_PlZxY0XMyKxD8_Q--180" value="获取预约榜资源" style="whiteSpace=wrap;html=1;" vertex="1" parent="6m1_PlZxY0XMyKxD8_Q--178">
          <mxGeometry x="75" y="280" width="120" height="60" as="geometry" />
        </mxCell>
        <mxCell id="6m1_PlZxY0XMyKxD8_Q--181" value="cdo-resource-rpc-store" style="swimlane;startSize=20;html=1;" vertex="1" parent="6m1_PlZxY0XMyKxD8_Q--156">
          <mxGeometry x="1100" y="20" width="190" height="1650" as="geometry" />
        </mxCell>
        <mxCell id="6m1_PlZxY0XMyKxD8_Q--216" value="AppServiceV2.filter&lt;br&gt;机型屏蔽、cpu校验" style="whiteSpace=wrap;html=1;fillColor=#d5e8d4;strokeColor=#82b366;" vertex="1" parent="6m1_PlZxY0XMyKxD8_Q--181">
          <mxGeometry x="35" y="567.5" width="120" height="60" as="geometry" />
        </mxCell>
        <mxCell id="6m1_PlZxY0XMyKxD8_Q--185" value="" style="edgeStyle=orthogonalEdgeStyle;rounded=0;orthogonalLoop=1;jettySize=auto;html=1;" edge="1" parent="6m1_PlZxY0XMyKxD8_Q--156" source="6m1_PlZxY0XMyKxD8_Q--158" target="6m1_PlZxY0XMyKxD8_Q--163">
          <mxGeometry relative="1" as="geometry" />
        </mxCell>
        <mxCell id="6m1_PlZxY0XMyKxD8_Q--196" style="edgeStyle=orthogonalEdgeStyle;rounded=0;orthogonalLoop=1;jettySize=auto;html=1;entryX=0;entryY=0.5;entryDx=0;entryDy=0;" edge="1" parent="6m1_PlZxY0XMyKxD8_Q--156" source="6m1_PlZxY0XMyKxD8_Q--167" target="6m1_PlZxY0XMyKxD8_Q--180">
          <mxGeometry relative="1" as="geometry" />
        </mxCell>
        <mxCell id="6m1_PlZxY0XMyKxD8_Q--212" value="" style="edgeStyle=orthogonalEdgeStyle;rounded=0;orthogonalLoop=1;jettySize=auto;html=1;" edge="1" parent="6m1_PlZxY0XMyKxD8_Q--156" source="6m1_PlZxY0XMyKxD8_Q--209" target="6m1_PlZxY0XMyKxD8_Q--211">
          <mxGeometry relative="1" as="geometry">
            <Array as="points">
              <mxPoint x="650" y="1190" />
            </Array>
          </mxGeometry>
        </mxCell>
        <mxCell id="6m1_PlZxY0XMyKxD8_Q--214" value="" style="edgeStyle=orthogonalEdgeStyle;rounded=0;orthogonalLoop=1;jettySize=auto;html=1;" edge="1" parent="6m1_PlZxY0XMyKxD8_Q--156" source="6m1_PlZxY0XMyKxD8_Q--211" target="6m1_PlZxY0XMyKxD8_Q--213">
          <mxGeometry relative="1" as="geometry" />
        </mxCell>
        <mxCell id="6m1_PlZxY0XMyKxD8_Q--217" value="" style="edgeStyle=orthogonalEdgeStyle;rounded=0;orthogonalLoop=1;jettySize=auto;html=1;" edge="1" parent="6m1_PlZxY0XMyKxD8_Q--156" source="6m1_PlZxY0XMyKxD8_Q--169" target="6m1_PlZxY0XMyKxD8_Q--216">
          <mxGeometry relative="1" as="geometry" />
        </mxCell>
        <mxCell id="6m1_PlZxY0XMyKxD8_Q--218" style="edgeStyle=orthogonalEdgeStyle;rounded=0;orthogonalLoop=1;jettySize=auto;html=1;entryX=0.5;entryY=0;entryDx=0;entryDy=0;" edge="1" parent="6m1_PlZxY0XMyKxD8_Q--156" source="6m1_PlZxY0XMyKxD8_Q--169" target="6m1_PlZxY0XMyKxD8_Q--160">
          <mxGeometry relative="1" as="geometry" />
        </mxCell>
        <mxCell id="6m1_PlZxY0XMyKxD8_Q--183" value="game-welfare" style="swimlane;startSize=20;html=1;" vertex="1" parent="6m1_PlZxY0XMyKxD8_Q--156">
          <mxGeometry x="1290" y="20" width="230" height="1650" as="geometry" />
        </mxCell>
        <mxCell id="6m1_PlZxY0XMyKxD8_Q--184" value="游戏预约信息" style="whiteSpace=wrap;html=1;" vertex="1" parent="6m1_PlZxY0XMyKxD8_Q--183">
          <mxGeometry x="40" y="410" width="120" height="60" as="geometry" />
        </mxCell>
        <mxCell id="6m1_PlZxY0XMyKxD8_Q--224" style="edgeStyle=orthogonalEdgeStyle;rounded=0;orthogonalLoop=1;jettySize=auto;html=1;entryX=1;entryY=0.5;entryDx=0;entryDy=0;startArrow=block;startFill=1;" edge="1" parent="6m1_PlZxY0XMyKxD8_Q--156" source="6m1_PlZxY0XMyKxD8_Q--184" target="6m1_PlZxY0XMyKxD8_Q--222">
          <mxGeometry relative="1" as="geometry" />
        </mxCell>
      </root>
    </mxGraphModel>
  </diagram>
</mxfile>
